<svg height="512" viewBox="0 0 64 64" width="512" xmlns="http://www.w3.org/2000/svg" xmlns:xlink="http://www.w3.org/1999/xlink"><linearGradient id="linear-gradient" gradientUnits="userSpaceOnUse" x1="3.25" x2="60.75" y1="32" y2="32"><stop offset="0" stop-color="#5bb4f6"/><stop offset=".61" stop-color="#2191e5"/><stop offset="1" stop-color="#007edb"/></linearGradient><g id="Layer_44" data-name="Layer 44"><circle cx="32" cy="32" fill="url(#linear-gradient)" r="28.75"/><g fill="#fff"><path d="m21.27 26.11 10-10v26.47a.71.71 0 0 0 1.42 0v-26.48l10 10a.71.71 0 0 0 1-1l-11.19-11.22a.7.7 0 0 0 -1 0l-11.23 11.23a.71.71 0 0 0 1 1z"/><path d="m48 44.31a.71.71 0 0 0 -.72.71v3.89h-30.6v-3.91a.72.72 0 0 0 -1.43 0v4.6a.71.71 0 0 0 .71.71h32.04a.71.71 0 0 0 .71-.71v-4.6a.71.71 0 0 0 -.71-.69z"/></g></g></svg>