<svg id="Layer_1" enable-background="new 0 0 512 512" height="512" viewBox="0 0 512 512" width="512" xmlns="http://www.w3.org/2000/svg"><g id="XMLID_1_"><g id="XMLID_1547_"><path id="XMLID_4212_" d="m356 334c11 0 20-9 20-20v-8c11 0 20-9 20-20v-180h-40z" fill="#ef917b"/><path id="XMLID_4210_" d="m356 254.7c10.7-10.8 20.4-23.6 28.8-38.3 4.2-7.3 7.9-14.8 11.2-22.4v-88h-40z" fill="#e96b4e"/><path id="XMLID_4209_" d="m396 236v50c0 5.5-2.2 10.5-5.9 14.1-3.6 3.6-8.6 5.9-14.1 5.9v-50c20 0 20-20 20-20" fill="#e96b4e"/><path id="XMLID_4208_" d="m156 334c-11 0-20-9-20-20v-20c-11 0-20-9-20-20v-168h40z" fill="#ef917b"/><path id="XMLID_4207_" d="m156 276v58c-11 0-20-8.9-20-20v-72s1.5 34 20 34" fill="#e96b4e"/><path id="XMLID_4206_" d="m156 254.7v-148.7h-40v88.1c3.3 7.6 7 15.1 11.2 22.4 8.4 14.7 18 27.5 28.8 38.2" fill="#e96b4e"/><path id="XMLID_4205_" d="m437 106h-151v-101h-60v101h-151v60h151v341h60v-341h151z" fill="#e36414"/><g fill="#b24e10"><path id="XMLID_4204_" clip-rule="evenodd" d="m286 121h151v10h-151z" fill-rule="evenodd"/><path id="XMLID_4203_" clip-rule="evenodd" d="m286 141h151v10h-151z" fill-rule="evenodd"/><path id="XMLID_4202_" clip-rule="evenodd" d="m75 121h151v10h-151z" fill-rule="evenodd"/><path id="XMLID_4201_" clip-rule="evenodd" d="m75 141h151v10h-151z" fill-rule="evenodd"/><path id="XMLID_4200_" clip-rule="evenodd" d="m241 5h10v502h-10z" fill-rule="evenodd"/><path id="XMLID_4199_" clip-rule="evenodd" d="m261 5h10v502h-10z" fill-rule="evenodd"/><path id="XMLID_4198_" d="m226 253v40.2c9.7 2 19.7 3 30 3s20.3-1 30-3v-40.2z"/><path id="XMLID_4196_" clip-rule="evenodd" d="m116 106h40v60h-40z" fill-rule="evenodd"/><path id="XMLID_4195_" clip-rule="evenodd" d="m356 106h40v60h-40z" fill-rule="evenodd"/></g><path id="XMLID_4194_" d="m396 106c0 25-8.8 65.6-28.5 99.9-26.3 45.9-64.5 70.1-111.5 70.1-46.7 0-85.2-24.2-111.5-70.1-19.7-34.3-28.5-74.9-28.5-99.9h40c0 33.3 24.6 130 100 130 75 0 100-96.7 100-130z" fill="#f5b7a9"/><path id="XMLID_4193_" d="m256 256c-107 0-120-150-120-150h20c0 21.3 10.1 68.5 37 99.8 26.3 46.7 63 50.2 63 50.2" fill="#ef917b"/><path id="XMLID_4192_" d="m376 106s-5.8 67-41.6 111.5c0 0 21.6-54 21.6-111.5z" fill="#ef917b"/><path id="XMLID_4191_" clip-rule="evenodd" d="m286 106h20v60h-20z" fill="#b24e10" fill-rule="evenodd"/><path id="XMLID_4190_" clip-rule="evenodd" d="m206 106h20v60h-20z" fill="#b24e10" fill-rule="evenodd"/></g></g></svg>